<svg height="427pt" viewBox="-38 0 427 427.29532" width="427pt" xmlns="http://www.w3.org/2000/svg"><path d="m344.121094 78.496094c-16.480469 0-28.695313-4.613282-36.292969-13.707032-13.492187-16.140624-9.101563-41.796874-9.03125-42.183593.335937-1.847657-.082031-3.75-1.164063-5.285157-1.078124-1.535156-2.730468-2.574218-4.582031-2.878906-3.574219-.589844-87.890625-14.441406-117.414062-14.441406-29.523438 0-113.835938 13.851562-117.414063 14.441406-1.851562.308594-3.5 1.34375-4.582031 2.878906-1.078125 1.535157-1.5 3.4375-1.164063 5.285157.046876.253906 4.496094 26-9.027343 42.179687-7.601563 9.09375-19.820313 13.710938-36.300781 13.710938-3.867188 0-7 3.132812-7 7v95.796875c0 28.730469 2.492187 72.082031 24.046874 116.6875 27.199219 56.316406 77.28125 99.644531 148.800782 128.800781 1.691406.6875 3.585937.6875 5.28125 0 71.519531-29.140625 121.597656-72.46875 148.796875-128.800781 21.558593-44.601563 24.050781-87.957031 24.050781-116.6875v-95.796875c0-3.867188-3.136719-7.003906-7.003906-7zm-7 102.800781c0 40.746094 0 164.296875-161.484375 231.414063-161.496094-67.121094-161.488281-190.671876-161.488281-231.417969v-89.050781c17.4375-1.28125 30.910156-7.515626 40.101562-18.558594 12.800781-15.371094 13.488281-35.820313 12.800781-46.488282 20.71875-3.300781 84.800781-13.199218 108.585938-13.199218 23.78125 0 87.867187 9.898437 108.582031 13.199218-.691406 10.667969 0 31.117188 12.800781 46.488282 9.199219 11.046875 22.660157 17.273437 40.101563 18.558594zm-49.378906-99.894531c-8.835938-11.03125-14.152344-24.46875-15.246094-38.5625-.328125-3.167969-2.757813-5.714844-5.910156-6.195313-25.925782-3.953125-72.226563-10.605469-90.949219-10.605469-18.726563 0-65.015625 6.652344-90.949219 10.601563-3.152344.480469-5.578125 3.027344-5.90625 6.199219-1.101562 14.097656-6.417969 27.535156-15.257812 38.570312-8.363282 9.890625-19.605469 16.921875-32.160157 20.109375-3.042969.832031-5.152343 3.597657-5.152343 6.753907v73.019531c0 37.679687 0 152.347656 146.597656 217.085937 1.800781.796875 3.855468.796875 5.65625 0 146.59375-64.738281 146.59375-179.402344 146.59375-217.085937v-73.027344c0-3.15625-2.109375-5.917969-5.152344-6.75-12.550781-3.191406-23.796875-10.222656-32.164062-20.113281zm23.316406 99.890625c0 35.199219 0 141.753906-135.421875 203.019531-135.4375-61.269531-135.425781-167.835938-135.425781-203.019531v-67.859375c13.265624-4.410156 25.058593-12.398438 34.078124-23.078125 9.511719-11.679688 15.640626-25.742188 17.714844-40.664063 22.792969-3.414062 66.578125-9.652344 83.632813-9.652344 17.050781 0 60.84375 6.222657 83.636719 9.636719 2.070312 14.921875 8.199218 28.988281 17.714843 40.667969 9.019531 10.679688 20.8125 18.660156 34.074219 23.070312zm-59.5625-41.34375c-5.886719-.019531-11.535156 2.320312-15.683594 6.492187l-87.347656 87.351563-33.003906-33c-4.152344-4.171875-9.796876-6.511719-15.679688-6.496094-8.96875 0-17.054688 5.402344-20.488281 13.6875-3.433594 8.289063-1.535157 17.824219 4.808593 24.167969l48.679688 48.6875c8.65625 8.664062 22.703125 8.664062 31.363281 0l103.03125-103.03125c6.34375-6.34375 8.242188-15.882813 4.8125-24.171875-3.433593-8.285157-11.523437-13.691407-20.492187-13.6875zm5.78125 27.953125-103.035156 103.035156c-3.242188 3.078125-8.324219 3.078125-11.566407 0l-48.679687-48.683594c-2.335938-2.339844-3.035156-5.855468-1.773438-8.910156 1.265625-3.054688 4.246094-5.046875 7.554688-5.046875 2.167968-.003906 4.253906.859375 5.78125 2.398437l37.953125 37.949219c1.3125 1.3125 3.09375 2.050781 4.949219 2.050781 1.859374 0 3.636718-.738281 4.949218-2.050781l92.300782-92.300781c3.234374-3.097656 8.335937-3.097656 11.574218 0 1.53125 1.53125 2.394532 3.613281 2.394532 5.78125s-.863282 4.246094-2.394532 5.777344zm0 0"/></svg>