<svg height="496pt" viewBox="0 0 496 496" width="496pt" xmlns="http://www.w3.org/2000/svg"><path d="m304 288c-17.648438 0-32 14.351562-32 32v16h16v-16c0-8.824219 7.175781-16 16-16s16 7.175781 16 16v6.984375c0 3.878906-1.40625 7.625-3.960938 10.535156l-52.039062 59.480469v19h72v-16h-53.367188l45.457032-51.945312c5.09375-5.839844 7.910156-13.320313 7.910156-21.070313v-6.984375c0-17.648438-14.351562-32-32-32zm0 0"/><path d="m432 376v-88h-20.167969l-59.832031 85.480469v18.519531h64v24h16v-24h16v-16zm-16 0h-46.230469l46.230469-66.046875zm0 0"/><path d="m430.105469 243.679688c1.167969-9.167969 1.894531-18.441407 1.894531-27.679688 0-119.105469-96.894531-216-216-216s-216 96.894531-216 216 96.894531 216 216 216c9.246094 0 18.519531-.726562 27.679688-1.902344 23.839843 39.414063 66.992187 65.902344 116.320312 65.902344 74.992188 0 136-61.007812 136-136 0-49.328125-26.488281-92.480469-65.894531-116.320312zm-214.105469 172.320312c-110.28125 0-200-89.71875-200-200s89.71875-200 200-200 200 89.71875 200 200c0 6.566406-.441406 13.136719-1.078125 19.6875-5.035156-2.230469-10.203125-4.207031-15.53125-5.824219.363281-4.695312.609375-9.351562.609375-13.863281 0-101.457031-82.535156-184-184-184s-184 82.542969-184 184 82.535156 184 184 184c4.519531 0 9.175781-.246094 13.863281-.609375 1.617188 5.328125 3.585938 10.496094 5.824219 15.53125-6.542969.636719-13.121094 1.078125-19.6875 1.078125zm8-56c0 8.078125.839844 15.953125 2.199219 23.65625-3.457031.214844-6.863281.34375-10.199219.34375-43.441406 0-82.960938-16.71875-112.816406-43.878906l22.304687-22.296875-11.3125-11.3125-22.304687 22.296875c-25.464844-27.992188-41.558594-64.527344-43.464844-104.808594h31.59375v-16h-31.59375c1.914062-40.28125 18-76.816406 43.472656-104.808594l22.304688 22.296875 11.3125-11.3125-22.304688-22.296875c27.992188-25.472656 64.527344-41.558594 104.808594-43.472656v31.59375h16v-31.59375c40.28125 1.914062 76.816406 18 104.816406 43.472656l-22.304687 22.296875 11.3125 11.3125 22.304687-22.296875c27.152344 29.847656 43.871094 69.367188 43.871094 112.808594 0 3.328125-.128906 6.742188-.34375 10.199219-7.695312-1.359375-15.578125-2.199219-23.65625-2.199219-74.992188 0-136 61.007812-136 136zm136 120c-66.167969 0-120-53.832031-120-120s53.832031-120 120-120 120 53.832031 120 120-53.832031 120-120 120zm0 0"/><path d="m208 212.6875-37.65625 37.65625 11.3125 11.3125 42.34375-42.34375v-91.3125h-16zm0 0"/></svg>